<svg width="94" height="42" viewBox="0 0 94 42" fill="none" xmlns="http://www.w3.org/2000/svg">
<path opacity="0.7" d="M92.5 42H1.5C0.675 42 0 41.325 0 40.5V1.5C0 0.675 0.675 0 1.5 0H92.5C93.325 0 94 0.675 94 1.5V40.5C94 41.325 93.325 42 92.5 42Z" fill="black"/>
<path d="M32.1625 29.5H30.6875V18.05H37.375V19.4625H32.1625V23.225H36.875V24.6H32.175V29.5H32.1625Z" fill="white"/>
<path d="M39.9125 19.7C39.7125 19.9 39.4625 20 39.175 20C38.8875 20 38.6375 19.9 38.4375 19.7C38.2375 19.5 38.1375 19.25 38.1375 18.9625C38.1375 18.675 38.2375 18.425 38.4375 18.225C38.6375 18.025 38.8875 17.925 39.175 17.925C39.4625 17.925 39.7125 18.025 39.9125 18.225C40.1125 18.425 40.2125 18.675 40.2125 18.9625C40.2125 19.25 40.1125 19.4875 39.9125 19.7ZM39.9125 29.5H38.4375V21.6625H39.9125V29.5Z" fill="white"/>
<path d="M42.9875 29.5H41.5125V21.6625H42.925V22.9375H42.9875C43.1375 22.5125 43.4375 22.1625 43.9125 21.8875C44.375 21.6125 44.825 21.475 45.2625 21.475C45.7 21.475 46.0625 21.5375 46.3625 21.6625L45.8 23.0375C45.6125 22.9625 45.35 22.925 45.0125 22.925C44.475 22.925 44.0125 23.1375 43.6 23.5625C43.1875 23.9875 42.9875 24.5375 42.9875 25.2125V29.5Z" fill="white"/>
<path d="M49.9125 29.7625C48.725 29.7625 47.7625 29.3625 47.025 28.575C46.2875 27.7875 45.9125 26.7875 45.9125 25.5875C45.9125 24.45 46.275 23.4625 46.9875 22.6375C47.7125 21.8125 48.625 21.4 49.75 21.4C50.9125 21.4 51.8375 21.775 52.5375 22.5375C53.2375 23.3 53.5875 24.3125 53.5875 25.575L53.575 25.85H47.3875C47.425 26.6375 47.7 27.2625 48.175 27.725C48.6625 28.1875 49.225 28.4125 49.875 28.4125C50.925 28.4125 51.65 27.9625 52.025 27.0625L53.3375 27.6125C53.0875 28.225 52.6625 28.725 52.075 29.1375C51.4875 29.55 50.7625 29.7625 49.9125 29.7625ZM52.025 24.6375C51.9875 24.1875 51.7875 23.7625 51.4125 23.3625C51.0375 22.9625 50.475 22.75 49.725 22.75C49.175 22.75 48.7125 22.925 48.3125 23.2625C47.9125 23.6 47.6375 24.0625 47.4875 24.6375H52.025Z" fill="white"/>
<path d="M58.7625 29.7625C58.1625 29.7625 57.625 29.6375 57.15 29.375C56.675 29.125 56.325 28.8 56.0875 28.4125H56.025V29.5H54.6125V18.05H56.0875V21.6625L56.025 22.75H56.0875C56.325 22.3625 56.675 22.05 57.15 21.7875C57.625 21.5375 58.1625 21.4 58.7625 21.4C59.775 21.4 60.65 21.8 61.3875 22.6C62.125 23.4 62.4875 24.3875 62.4875 25.575C62.4875 26.7625 62.125 27.75 61.3875 28.55C60.65 29.3625 59.775 29.7625 58.7625 29.7625ZM58.5125 28.4125C59.2 28.4125 59.7875 28.15 60.275 27.6375C60.7625 27.125 61.0125 26.4375 61.0125 25.5875C61.0125 24.7375 60.7625 24.05 60.275 23.5375C59.7875 23.025 59.2 22.7625 58.5125 22.7625C57.825 22.7625 57.225 23.0125 56.75 23.525C56.275 24.0375 56.025 24.725 56.025 25.5875C56.025 26.45 56.2625 27.1375 56.75 27.65C57.2375 28.1625 57.825 28.4125 58.5125 28.4125Z" fill="white"/>
<path d="M66.15 29.7625C65.3125 29.7625 64.625 29.525 64.0625 29.0375C63.5 28.5625 63.225 27.925 63.225 27.1375C63.225 26.2875 63.55 25.6125 64.2125 25.125C64.875 24.6375 65.6875 24.4 66.6625 24.4C67.525 24.4 68.2375 24.5625 68.7875 24.875V24.65C68.7875 24.075 68.5875 23.6125 68.2 23.2625C67.8 22.9125 67.325 22.7375 66.75 22.7375C66.325 22.7375 65.9375 22.8375 65.5875 23.0375C65.2375 23.2375 65 23.5125 64.875 23.875L63.525 23.3C63.7125 22.825 64.0625 22.4 64.6 22C65.1375 21.6 65.8375 21.4 66.7125 21.4C67.7125 21.4 68.55 21.6875 69.2125 22.275C69.875 22.8625 70.2 23.6875 70.2 24.75V29.5H68.7875V28.4125H68.725C68.1375 29.3125 67.275 29.7625 66.15 29.7625ZM66.3875 28.4125C67 28.4125 67.55 28.1875 68.0375 27.7375C68.5375 27.2875 68.7875 26.75 68.7875 26.125C68.375 25.7875 67.75 25.6125 66.9125 25.6125C66.2 25.6125 65.6625 25.7625 65.3 26.075C64.9375 26.3875 64.75 26.75 64.75 27.1625C64.75 27.55 64.9125 27.85 65.25 28.075C65.5875 28.3 65.9625 28.4125 66.3875 28.4125Z" fill="white"/>
<path d="M74.2875 29.7625C73.4125 29.7625 72.6875 29.55 72.125 29.125C71.55 28.7 71.1375 28.1625 70.875 27.525L72.1875 26.975C72.6 27.9625 73.3125 28.45 74.3125 28.45C74.775 28.45 75.15 28.35 75.4375 28.15C75.725 27.95 75.875 27.675 75.875 27.35C75.875 26.8375 75.5125 26.4875 74.8 26.3125L73.2125 25.925C72.7125 25.8 72.2375 25.55 71.7875 25.2C71.3375 24.8375 71.1125 24.3625 71.1125 23.75C71.1125 23.0625 71.425 22.5 72.0375 22.0625C72.65 21.625 73.375 21.4125 74.225 21.4125C74.9125 21.4125 75.5375 21.575 76.075 21.8875C76.625 22.2 77.0125 22.65 77.2375 23.2375L75.9625 23.7625C75.675 23.075 75.075 22.725 74.175 22.725C73.7375 22.725 73.375 22.8125 73.075 23C72.775 23.1875 72.625 23.425 72.625 23.7375C72.625 24.1875 72.975 24.4875 73.6625 24.65L75.2125 25.0125C75.95 25.1875 76.4875 25.475 76.85 25.8875C77.2 26.3 77.375 26.775 77.375 27.3C77.375 28 77.0875 28.5875 76.5125 29.0625C75.9375 29.5375 75.2 29.7625 74.2875 29.7625Z" fill="white"/>
<path d="M81.975 29.7625C80.7875 29.7625 79.825 29.3625 79.0875 28.575C78.35 27.7875 77.975 26.7875 77.975 25.5875C77.975 24.45 78.3375 23.4625 79.05 22.6375C79.775 21.8125 80.6875 21.4 81.8125 21.4C82.975 21.4 83.9 21.775 84.6 22.5375C85.3 23.3 85.65 24.3125 85.65 25.575L85.6375 25.85H79.45C79.4875 26.6375 79.7625 27.2625 80.2375 27.725C80.725 28.1875 81.2875 28.4125 81.9375 28.4125C82.9875 28.4125 83.7125 27.9625 84.0875 27.0625L85.4 27.6125C85.15 28.225 84.725 28.725 84.1375 29.1375C83.55 29.55 82.825 29.7625 81.975 29.7625ZM84.0875 24.6375C84.05 24.1875 83.85 23.7625 83.475 23.3625C83.1 22.9625 82.5375 22.75 81.7875 22.75C81.2375 22.75 80.775 22.925 80.375 23.2625C79.975 23.6 79.7 24.0625 79.55 24.6375H84.0875Z" fill="white"/>
<path d="M8.1625 30L10.875 12.675C10.9125 12.4 11.175 12.2125 11.45 12.2625C11.6 12.2875 11.7375 12.3875 11.8125 12.525L14.6125 17.75L15.725 15.625C15.85 15.375 16.15 15.2875 16.4 15.4125C16.4875 15.4625 16.5625 15.5375 16.6125 15.625L24.1625 30H8.1625Z" fill="#FFA000"/>
<path opacity="0.12" d="M17.4125 12.375L4.16251 11.25V35.25L8.16251 30L17.4125 12.375Z" fill="url(#paint0_linear_19_117)"/>
<path d="M17.525 23.25L14.6125 17.7375L8.1625 30L17.525 23.25Z" fill="#F57C00"/>
<path opacity="0.2" d="M4.16251 11.25H28.1625V35.25H4.16251V11.25V11.25Z" fill="url(#paint1_linear_19_117)"/>
<path d="M24.1625 30L22.0875 17.1625C22.0375 16.8875 21.7875 16.7125 21.5125 16.75C21.4125 16.7625 21.3125 16.8125 21.2375 16.8875L8.1625 30L15.4 34.0625C15.85 34.3125 16.4125 34.3125 16.8625 34.0625L24.1625 30Z" fill="#FFCA28"/>
<path d="M22.1 17.175C22.05 16.9 21.8 16.725 21.525 16.7625C21.425 16.775 21.325 16.825 21.25 16.9L18.65 19.5L16.6125 15.6125C16.4875 15.3625 16.1875 15.275 15.9375 15.4C15.85 15.45 15.775 15.525 15.725 15.6125L14.6125 17.7375L11.8125 12.5125C11.6875 12.275 11.375 12.175 11.1375 12.3125C11 12.3875 10.9 12.525 10.875 12.675L8.16251 30H8.15001L8.16251 30.0125L8.23751 30.05L18.65 19.625L21.25 17.025C21.45 16.825 21.7625 16.825 21.9625 17.025C22.0375 17.1 22.0875 17.1875 22.1 17.3L24.15 30.0125L24.175 30L22.1 17.175ZM8.18751 29.975L10.875 12.8C10.9125 12.525 11.175 12.3375 11.45 12.3875C11.6 12.4125 11.7375 12.5125 11.8125 12.65L14.6125 17.875L15.725 15.75C15.85 15.5 16.15 15.4125 16.4 15.5375C16.4875 15.5875 16.5625 15.6625 16.6125 15.75L18.6125 19.55L8.18751 29.975Z" fill="white" fill-opacity="0.2"/>
<path opacity="0.2" d="M16.8625 33.9375C16.4125 34.1875 15.85 34.1875 15.4 33.9375L8.175 29.8875L8.1625 30L15.4 34.0625C15.85 34.3125 16.4125 34.3125 16.8625 34.0625L24.1625 30L24.15 29.8875L16.8625 33.9375Z" fill="#A52714"/>
<path d="M22.1 17.175C22.05 16.9 21.8 16.725 21.525 16.7625C21.425 16.775 21.325 16.825 21.25 16.9L18.65 19.5L16.6125 15.6125C16.4875 15.3625 16.1875 15.275 15.9375 15.4C15.85 15.45 15.775 15.525 15.725 15.6125L14.6125 17.7375L11.8125 12.5125C11.6875 12.275 11.375 12.175 11.1375 12.3125C11 12.3875 10.9 12.525 10.875 12.675L8.1625 30L15.4 34.0625C15.85 34.3125 16.4125 34.3125 16.8625 34.0625L24.1625 30L22.1 17.175Z" fill="url(#paint2_linear_19_117)"/>
<path d="M30.5875 13.65V8.27499H32.525C32.95 8.27499 33.3125 8.41249 33.6125 8.68749C33.925 8.96249 34.075 9.31249 34.075 9.73749C34.075 9.98749 34.0125 10.2125 33.875 10.4125C33.7375 10.6125 33.5625 10.75 33.35 10.85V10.875C33.6125 10.9625 33.8375 11.125 34 11.3375C34.175 11.5625 34.25 11.8125 34.25 12.1C34.25 12.5375 34.0875 12.9 33.7625 13.2C33.4375 13.4875 33.0625 13.6375 32.625 13.6375H30.5875V13.65ZM31.275 10.5875H32.525C32.7875 10.5875 33 10.5 33.15 10.325C33.3125 10.15 33.3875 9.96249 33.3875 9.76249C33.3875 9.56249 33.3125 9.37499 33.1625 9.19999C33.0125 9.02499 32.8125 8.94999 32.5625 8.94999H31.275V10.5875V10.5875ZM31.275 13H32.6625C32.925 13 33.1375 12.9125 33.3125 12.725C33.475 12.5375 33.5625 12.3375 33.5625 12.1125C33.5625 11.8875 33.475 11.6875 33.3125 11.5125C33.1375 11.325 32.925 11.2375 32.65 11.2375H31.2875V13H31.275Z" fill="white"/>
<path d="M38.3125 13.65H37.65V13.1375H37.625C37.525 13.3125 37.3625 13.4625 37.15 13.5875C36.9375 13.7125 36.7125 13.775 36.4625 13.775C36 13.775 35.65 13.6375 35.4125 13.35C35.175 13.075 35.05 12.7 35.05 12.225V9.97501H35.7375V12.1125C35.7375 12.8 36.0375 13.1375 36.65 13.1375C36.9375 13.1375 37.1625 13.025 37.35 12.7875C37.525 12.5625 37.625 12.2875 37.625 11.9875V9.97501H38.3125V13.65V13.65Z" fill="white"/>
<path d="M39.9875 9.06251C39.8875 9.16251 39.775 9.20001 39.6375 9.20001C39.5 9.20001 39.3875 9.15001 39.2875 9.06251C39.1875 8.96251 39.15 8.85001 39.15 8.71251C39.15 8.57501 39.2 8.46251 39.2875 8.36251C39.3875 8.26251 39.5 8.22501 39.6375 8.22501C39.775 8.22501 39.8875 8.27501 39.9875 8.36251C40.0875 8.46251 40.125 8.57501 40.125 8.71251C40.125 8.85001 40.075 8.96251 39.9875 9.06251ZM39.9875 13.65H39.3V9.97501H39.9875V13.65Z" fill="white"/>
<path d="M41.65 13.65H40.9625V8.27499H41.65V13.65Z" fill="white"/>
<path d="M44.1125 13.7125C43.725 13.7125 43.4375 13.6125 43.2375 13.4C43.0375 13.2 42.9375 12.9 42.9375 12.525V10.6125H42.2875V9.98752H42.9375V8.86252H43.625V9.98752H44.525V10.6125H43.625V12.4875C43.625 12.8875 43.7875 13.0875 44.125 13.0875C44.25 13.0875 44.35 13.0625 44.4375 13.025L44.675 13.6125C44.5125 13.6875 44.325 13.7125 44.1125 13.7125Z" fill="white"/>
<path d="M51.2875 13.65H50.5875L49.675 10.825L48.7625 13.65H48.0625L46.875 9.97501H47.6L48.4125 12.75H48.425L49.3375 9.97501H50.05L50.9625 12.75H50.975L51.7875 9.97501H52.4875L51.2875 13.65Z" fill="white"/>
<path d="M53.7625 9.06251C53.6625 9.16251 53.55 9.20001 53.4125 9.20001C53.275 9.20001 53.1625 9.15001 53.0625 9.06251C52.9625 8.96251 52.925 8.85001 52.925 8.71251C52.925 8.57501 52.975 8.46251 53.0625 8.36251C53.1625 8.26251 53.275 8.22501 53.4125 8.22501C53.55 8.22501 53.6625 8.27501 53.7625 8.36251C53.8625 8.46251 53.9 8.57501 53.9 8.71251C53.9 8.85001 53.85 8.96251 53.7625 9.06251ZM53.7625 13.65H53.075V9.97501H53.7625V13.65Z" fill="white"/>
<path d="M56.25 13.7125C55.8625 13.7125 55.575 13.6125 55.3625 13.4C55.1625 13.2 55.0625 12.9 55.0625 12.525V10.6125H54.4125V9.98752H55.0625V8.86252H55.75V9.98752H56.65V10.6125H55.75V12.4875C55.75 12.8875 55.9125 13.0875 56.25 13.0875C56.375 13.0875 56.475 13.0625 56.5625 13.025L56.8 13.6125C56.65 13.6875 56.475 13.7125 56.25 13.7125Z" fill="white"/>
<path d="M58.0875 8.28749V9.98749L58.0625 10.5H58.0875C58.1875 10.325 58.35 10.175 58.5625 10.05C58.775 9.92499 59.0125 9.86249 59.25 9.86249C59.7 9.86249 60.05 9.99999 60.2875 10.2875C60.525 10.5625 60.65 10.9375 60.65 11.4125V13.6625H59.9625V11.5125C59.9625 10.8375 59.6625 10.4875 59.05 10.4875C58.7625 10.4875 58.5375 10.6 58.35 10.825C58.175 11.05 58.075 11.3125 58.075 11.6125V13.65H57.3875V8.27499H58.0875V8.28749Z" fill="white"/>
<defs>
<linearGradient id="paint0_linear_19_117" x1="11.2803" y1="24.0694" x2="10.2803" y2="23.5469" gradientUnits="userSpaceOnUse">
<stop stop-color="#A52714"/>
<stop offset="0.4" stop-color="#A52714" stop-opacity="0.5"/>
<stop offset="0.8" stop-color="#A52714" stop-opacity="0"/>
</linearGradient>
<linearGradient id="paint1_linear_19_117" x1="15.5301" y1="22.6146" x2="15.0826" y2="22.1671" gradientUnits="userSpaceOnUse">
<stop stop-color="#A52714" stop-opacity="0.8"/>
<stop offset="0.5" stop-color="#A52714" stop-opacity="0.21"/>
<stop offset="1" stop-color="#A52714" stop-opacity="0"/>
</linearGradient>
<linearGradient id="paint2_linear_19_117" x1="7.73174" y1="16.1216" x2="24.4426" y2="32.8325" gradientUnits="userSpaceOnUse">
<stop stop-color="white" stop-opacity="0.1"/>
<stop offset="1" stop-color="white" stop-opacity="0"/>
</linearGradient>
</defs>
</svg>
