    <svg width="42" height="42" viewBox="0 0 42 42" fill="none" xmlns="http://www.w3.org/2000/svg">
    <circle cx="21" cy="21" r="21" fill="#E5E5E5"/>
    <path d="M20.9999 0C16.0134 0.000206836 11.1897 1.77524 7.39193 5.00751C3.59411 8.23977 1.07 12.7183 0.271235 17.6418C-0.527532 22.5654 0.451171 27.6125 3.03222 31.8803C5.61328 36.148 9.62825 39.3578 14.3587 40.9354C15.4087 41.1192 15.8025 40.4891 15.8025 39.9376C15.8025 39.4387 15.7762 37.7845 15.7762 36.0253C10.5 36.9968 9.13499 34.7387 8.715 33.5571C8.24896 32.4079 7.51018 31.3896 6.56251 30.59C5.82752 30.1961 4.77752 29.2246 6.53624 29.1984C7.20779 29.2713 7.85187 29.505 8.41392 29.8798C8.97597 30.2546 9.43942 30.7594 9.76499 31.3514C10.0522 31.8675 10.4384 32.3219 10.9015 32.6884C11.3645 33.055 11.8954 33.3265 12.4635 33.4875C13.0317 33.6485 13.626 33.6958 14.2125 33.6266C14.799 33.5574 15.366 33.3732 15.8812 33.0844C15.9721 32.0165 16.4479 31.018 17.2199 30.2749C12.5475 29.7498 7.665 27.9379 7.665 19.9032C7.63549 17.8155 8.40564 15.7957 9.81749 14.2579C9.17548 12.4434 9.2506 10.4522 10.0275 8.69129C10.0275 8.69129 11.7862 8.13986 15.8024 10.8444C19.2386 9.89908 22.8662 9.89908 26.3024 10.8444C30.3186 8.11362 32.0773 8.69129 32.0773 8.69129C32.8543 10.4522 32.9294 12.4434 32.2873 14.2579C33.7034 15.793 34.4742 17.8147 34.4398 19.9032C34.4398 27.9642 29.5311 29.7498 24.8586 30.2749C25.3598 30.783 25.7458 31.3931 25.9904 32.0636C26.2349 32.7342 26.3324 33.4495 26.2761 34.161C26.2761 36.9706 26.2499 39.2287 26.2499 39.9377C26.2499 40.4891 26.6436 41.1455 27.6936 40.9355C32.4158 39.345 36.4192 36.1277 38.9892 31.8578C41.5593 27.5879 42.5287 22.5433 41.7244 17.6245C40.9201 12.7058 38.3945 8.23303 34.5983 5.0047C30.8021 1.77637 25.9826 0.00259404 20.9999 0V0Z" fill="black"/>
    </svg>
