<svg width="200" height="43" viewBox="0 0 200 43" fill="none" xmlns="http://www.w3.org/2000/svg">
<path fill-rule="evenodd" clip-rule="evenodd" d="M27.7901 34.1381L31.225 40.0915C31.8079 41.102 31.0792 42.3648 29.9134 42.3648L13.5511 42.365C12.4688 42.365 11.4688 41.7872 10.928 40.8495L0.560696 22.8804C0.0196443 21.9425 0.0196443 20.7871 0.560696 19.8494L10.928 1.88053C11.4688 0.942601 12.4688 0.36499 13.5511 0.36499H34.2854C35.3673 0.36499 36.3674 0.942601 36.9085 1.88053L47.2757 19.8494C47.8166 20.7871 47.8166 21.9425 47.2757 22.8804L39.0945 37.0604C38.5116 38.0709 37.0542 38.0709 36.4712 37.0604L33.0121 31.0649C32.6908 30.508 32.7601 29.8125 33.1751 29.3213C34.9586 27.2101 36.034 24.4807 36.034 21.4998C36.034 14.6137 30.2973 9.06855 23.3456 9.38852C17.1387 9.67439 12.1007 14.716 11.8153 20.9275C11.4957 27.8836 17.0368 33.6241 23.9181 33.6241C24.6899 33.6241 25.4443 33.5502 26.1758 33.4112C26.8159 33.2896 27.4643 33.5735 27.7901 34.1381ZM23.9181 15.3612C27.264 15.3612 29.9761 18.0754 29.9761 21.4234C29.9761 24.7716 27.264 27.4856 23.9181 27.4856C20.5724 27.4856 17.8601 24.7716 17.8601 21.4234C17.8601 18.0754 20.5724 15.3612 23.9181 15.3612ZM58.4857 29.8619H54.833C54.7792 29.8619 54.7355 29.8184 54.7355 29.7644V13.6549C54.7355 13.6011 54.7792 13.5575 54.833 13.5575H58.4857C58.5395 13.5575 58.583 13.6011 58.583 13.6549V29.7644C58.583 29.8184 58.5395 29.8619 58.4857 29.8619ZM54.209 8.281C54.209 6.91702 55.3125 5.81294 56.6432 5.81294C58.0062 5.81294 59.1095 6.91702 59.1095 8.281C59.1095 9.64499 58.0062 10.7167 56.6432 10.7167C55.3125 10.7167 54.209 9.64499 54.209 8.281ZM70.694 16.6375C68.3188 16.6375 66.2111 18.412 66.2111 21.693C66.2111 24.9739 68.3188 26.8153 70.7611 26.8153C73.2424 26.8153 74.4174 25.1253 74.8148 23.8926C74.8313 23.8411 74.8843 23.8172 74.9352 23.8356L78.1643 25.0078C78.2146 25.0262 78.2432 25.0808 78.2269 25.1317C77.4275 27.6509 74.9924 30.364 70.7611 30.364C65.9768 30.364 62.3303 26.6478 62.3303 21.693C62.3303 16.671 65.9768 13.0553 70.6607 13.0553C74.9939 13.0553 77.3976 15.739 78.0982 18.3235C78.1116 18.3736 78.0831 18.426 78.0344 18.4438L74.7385 19.6489C74.6859 19.668 74.6308 19.6404 74.6158 19.5866C74.2234 18.1729 73.114 16.6375 70.694 16.6375ZM88.5262 26.8822C90.935 26.8822 93.0763 25.1079 93.0763 21.693C93.0763 18.3114 90.935 16.5706 88.5262 16.5706C86.1509 16.5706 83.9761 18.3114 83.9761 21.693C83.9761 25.0745 86.1509 26.8822 88.5262 26.8822ZM88.5262 13.0553C93.4106 13.0553 96.9907 16.7046 96.9907 21.693C96.9907 26.7149 93.4106 30.364 88.5262 30.364C83.6751 30.364 80.0952 26.7149 80.0952 21.693C80.0952 16.7046 83.6751 13.0553 88.5262 13.0553ZM104.618 20.4542V29.7644C104.618 29.8184 104.575 29.8619 104.521 29.8619H100.835C100.781 29.8619 100.738 29.8184 100.738 29.7644V13.6549C100.738 13.6011 100.781 13.5575 100.835 13.5575H104.421C104.475 13.5575 104.518 13.6011 104.518 13.6549C104.518 14.3079 105.269 14.6648 105.782 14.2608C106.818 13.4445 108.108 13.0889 109.336 13.0889C113.317 13.0889 115.224 15.968 115.224 19.5502V29.7644C115.224 29.8184 115.181 29.8619 115.127 29.8619H111.441C111.387 29.8619 111.343 29.8184 111.343 29.7644V20.2199C111.343 18.211 110.44 16.6042 107.998 16.6042C105.79 16.6042 104.618 18.3114 104.618 20.4542ZM118.588 25.4191L121.777 24.5344C121.833 24.5189 121.886 24.5564 121.893 24.6142C122.071 26.042 123.171 27.284 125.194 27.284C126.8 27.284 127.636 26.4135 127.636 25.4091C127.636 24.5386 127.034 23.8691 125.729 23.6012L123.321 23.0657C120.443 22.4295 118.938 20.5546 118.938 18.3114C118.938 15.4658 121.547 13.0553 124.926 13.0553C129.397 13.0553 130.896 15.8998 131.201 17.5233C131.21 17.5739 131.178 17.6194 131.128 17.6336L128.038 18.5172C127.983 18.5327 127.932 18.5035 127.922 18.4478C127.754 17.5072 127.027 16.102 124.926 16.102C123.555 16.102 122.584 16.9724 122.584 17.9769C122.584 18.8472 123.22 19.4833 124.224 19.6841L126.7 20.1865C129.778 20.856 131.383 22.7307 131.383 25.1412C131.383 27.6187 129.376 30.364 125.227 30.364C120.581 30.364 118.758 27.3757 118.513 25.5262C118.506 25.4767 118.54 25.4324 118.588 25.4191ZM142.126 16.6375C139.751 16.6375 137.643 18.412 137.643 21.693C137.643 24.9739 139.751 26.8153 142.193 26.8153C144.674 26.8153 145.849 25.1253 146.247 23.8926C146.263 23.8411 146.316 23.8172 146.367 23.8356L149.596 25.0078C149.647 25.0262 149.675 25.0808 149.659 25.1317C148.859 27.6509 146.424 30.364 142.193 30.364C137.409 30.364 133.762 26.6478 133.762 21.693C133.762 16.671 137.409 13.0553 142.093 13.0553C146.426 13.0553 148.83 15.739 149.53 18.3235C149.544 18.3736 149.515 18.426 149.466 18.4438L146.17 19.6489C146.118 19.668 146.063 19.6404 146.048 19.5866C145.655 18.1729 144.546 16.6375 142.126 16.6375ZM159.958 26.8822C162.367 26.8822 164.508 25.1079 164.508 21.693C164.508 18.3114 162.367 16.5706 159.958 16.5706C157.583 16.5706 155.408 18.3114 155.408 21.693C155.408 25.0745 157.583 26.8822 159.958 26.8822ZM159.958 13.0553C164.843 13.0553 168.423 16.7046 168.423 21.693C168.423 26.7149 164.843 30.364 159.958 30.364C155.107 30.364 151.527 26.7149 151.527 21.693C151.527 16.7046 155.107 13.0553 159.958 13.0553ZM182.703 29.8506C182.598 29.2608 181.919 28.9594 181.431 29.3063C180.488 29.9762 179.221 30.3306 177.954 30.3306C174.073 30.3306 171.798 27.4513 171.798 23.8356V13.6549C171.798 13.6011 171.842 13.5575 171.896 13.5575H175.582C175.636 13.5575 175.679 13.6011 175.679 13.6549V23.1327C175.679 25.1412 176.616 26.8488 178.958 26.8488C181.199 26.8488 182.37 25.3422 182.37 23.1994V13.6549C182.37 13.6011 182.414 13.5575 182.468 13.5575H186.154C186.208 13.5575 186.251 13.6011 186.251 13.6549V26.8822C186.251 28.1452 186.341 29.1402 186.407 29.7549C186.413 29.8121 186.368 29.8619 186.311 29.8619H182.705C182.704 29.8581 182.704 29.8545 182.703 29.8506ZM196.188 8.66652V13.4602C196.188 13.5138 196.231 13.5575 196.285 13.5575H199.469C199.523 13.5575 199.567 13.6011 199.567 13.6549V16.9084C199.567 16.9622 199.523 17.006 199.469 17.006H196.285C196.231 17.006 196.188 17.0494 196.188 17.1032V24.5721C196.188 26.0119 196.823 26.6143 198.262 26.6143C198.797 26.6143 199.433 26.5139 199.6 26.4804V29.6283C199.6 29.6683 199.583 29.7019 199.547 29.7166C199.265 29.8295 198.536 30.0629 197.225 30.0629C194.214 30.0629 192.34 28.2549 192.34 25.2083V17.1032C192.34 17.0494 192.297 17.006 192.243 17.006H189.427C189.373 17.006 189.329 16.9622 189.329 16.9084V13.5575H190.166C191.905 13.5575 192.675 12.4527 192.675 11.0131V8.66652C192.675 8.61272 192.718 8.56914 192.772 8.56914H196.09C196.144 8.56914 196.188 8.61272 196.188 8.66652Z" fill="white"/>
</svg>
