<svg width="50" height="50" viewBox="0 0 50 50" fill="none" xmlns="http://www.w3.org/2000/svg">
<g filter="url(#filter0_d_26_2)">
<path d="M25.8333 9C17.0833 9 10 16.0833 10 24.8333C10 33.5833 17.0833 40.6667 25.8333 40.6667C34.5833 40.6667 41.6667 33.5833 41.6667 24.8333C41.6667 16.0833 34.5833 9 25.8333 9ZM25.8333 39C18 39 11.6667 32.6667 11.6667 24.8333C11.6667 17 18 10.6667 25.8333 10.6667C33.6667 10.6667 40 17 40 24.8333C40 32.6667 33.6667 39 25.8333 39ZM33.9583 24.8333C33.9583 25.2917 33.5833 25.6667 33.125 25.6667H18.5417C18.0833 25.6667 17.7083 25.2917 17.7083 24.8333C17.7083 24.375 18.0833 24 18.5417 24H33.125C33.5833 24 33.9583 24.375 33.9583 24.8333ZM33.9583 29.8333C33.9583 30.2917 33.5833 30.6667 33.125 30.6667H18.5417C18.0833 30.6667 17.7083 30.2917 17.7083 29.8333C17.7083 29.375 18.0833 29 18.5417 29H33.125C33.5833 29 33.9583 29.375 33.9583 29.8333ZM33.9583 19.8333C33.9583 20.2917 33.5833 20.6667 33.125 20.6667H18.5417C18.0833 20.6667 17.7083 20.2917 17.7083 19.8333C17.7083 19.375 18.0833 19 18.5417 19H33.125C33.5833 19 33.9583 19.375 33.9583 19.8333Z" fill="url(#paint0_radial_26_2)"/>
</g>
<defs>
<filter id="filter0_d_26_2" x="-5" y="-1" width="60" height="60" filterUnits="userSpaceOnUse" color-interpolation-filters="sRGB">
<feFlood flood-opacity="0" result="BackgroundImageFix"/>
<feColorMatrix in="SourceAlpha" type="matrix" values="0 0 0 0 0 0 0 0 0 0 0 0 0 0 0 0 0 0 127 0" result="hardAlpha"/>
<feOffset dy="4"/>
<feGaussianBlur stdDeviation="2.5"/>
<feColorMatrix type="matrix" values="0 0 0 0 0 0 0 0 0 0 0 0 0 0 0 0 0 0 0.65 0"/>
<feBlend mode="normal" in2="BackgroundImageFix" result="effect1_dropShadow_26_2"/>
<feBlend mode="normal" in="SourceGraphic" in2="effect1_dropShadow_26_2" result="shape"/>
</filter>
<radialGradient id="paint0_radial_26_2" cx="0" cy="0" r="1" gradientUnits="userSpaceOnUse" gradientTransform="translate(26 11.5) rotate(90.3274) scale(29.1671)">
<stop stop-color="#29FFCC"/>
<stop offset="0.390625" stop-color="#29E0D5"/>
<stop offset="0.75" stop-color="#29B2FF"/>
</radialGradient>
</defs>
</svg>
