<svg
      width="42"
      height="42"
      viewBox="0 0 42 42"
      fill="none"
      xmlns="http://www.w3.org/2000/svg"
    >
      <path
        d="M20.8688 28.5863C31.842 28.5863 40.7376 25.1898 40.7376 21C40.7376 16.8102 31.842 13.4137 20.8688 13.4137C9.89556 13.4137 1 16.8102 1 21C1 25.1898 9.89556 28.5863 20.8688 28.5863Z"
        stroke="#61DAFB"
      />
      <path
        d="M14.2989 24.7931C19.7855 34.2962 27.1747 40.3018 30.8032 38.2069C34.4316 36.112 32.9253 26.71 27.4387 17.2069C21.9521 7.70378 14.5628 1.69824 10.9344 3.79313C7.30594 5.88802 8.81228 15.29 14.2989 24.7931Z"
        stroke="#61DAFB"
      />
      <path
        d="M14.2989 17.2069C8.81227 26.71 7.30594 36.112 10.9344 38.2069C14.5628 40.3018 21.9521 34.2962 27.4387 24.7931C32.9253 15.2901 34.4316 5.88803 30.8032 3.79314C27.1747 1.69825 19.7855 7.70379 14.2989 17.2069Z"
        stroke="#61DAFB"
      />
      <path
        d="M20.8688 24.7028C22.9138 24.7028 24.5716 23.045 24.5716 21C24.5716 18.955 22.9138 17.2972 20.8688 17.2972C18.8238 17.2972 17.166 18.955 17.166 21C17.166 23.045 18.8238 24.7028 20.8688 24.7028Z"
        fill="#61DAFB"
      />
    </svg>