<svg width="42" height="42" viewBox="0 0 42 42" fill="none" xmlns="http://www.w3.org/2000/svg">
<rect width="42" height="42" fill="#082032"/>
<path d="M12.0376 21C12.0368 20.3035 12.1349 19.6135 12.3265 18.9696C12.5181 18.3258 12.7993 17.7406 13.1541 17.2477C13.5089 16.7547 13.9302 16.3637 14.3941 16.0968C14.8579 15.83 15.3552 15.6927 15.8573 15.6927H15.8357C16.3379 15.6927 16.8351 15.83 17.299 16.0968C17.7628 16.3637 18.1842 16.7547 18.539 17.2477C18.8937 17.7406 19.175 18.3258 19.3665 18.9696C19.5581 19.6135 19.6563 20.3035 19.6554 21V21C19.6554 22.4052 19.253 23.7529 18.5367 24.7465C17.8203 25.7401 16.8488 26.2984 15.8357 26.2984H15.8573C14.8443 26.2984 13.8727 25.7401 13.1564 24.7465C12.4401 23.7529 12.0376 22.4052 12.0376 21ZM29.9084 11.6057H37.0203C38.0334 11.6057 39.0049 11.0475 39.7213 10.0538C40.4376 9.06021 40.8401 7.71256 40.8401 6.30735V6.30735C40.8409 5.6108 40.7427 4.92086 40.5512 4.27699C40.3596 3.63313 40.0784 3.04798 39.7236 2.55503C39.3688 2.06208 38.9474 1.671 38.4836 1.40417C38.0197 1.13734 37.5225 0.999999 37.0203 1L29.9084 1C29.4062 0.999999 28.909 1.13734 28.4451 1.40417C27.9813 1.671 27.5599 2.06208 27.2051 2.55503C26.8503 3.04798 26.5691 3.63313 26.3775 4.27699C26.186 4.92086 26.0878 5.6108 26.0886 6.30735V6.30735C26.0886 7.71256 26.4911 9.06021 27.2074 10.0538C27.9237 11.0475 28.8953 11.6057 29.9084 11.6057V11.6057ZM5.4812 40.991H19.2944C20.3075 40.991 21.279 40.4328 21.9954 39.4392C22.7117 38.4455 23.1141 37.0979 23.1141 35.6927V35.6927C23.115 34.9961 23.0168 34.3062 22.8253 33.6623C22.6337 33.0184 22.3525 32.4333 21.9977 31.9403C21.6429 31.4474 21.2215 31.0563 20.7577 30.7895C20.2938 30.5227 19.7966 30.3853 19.2944 30.3853H5.4812C4.97904 30.3853 4.48181 30.5227 4.01795 30.7895C3.5541 31.0563 3.13273 31.4474 2.77795 31.9403C2.42317 32.4333 2.14195 33.0184 1.95037 33.6623C1.7588 34.3062 1.66063 34.9961 1.66148 35.6927V35.6927C1.66148 37.0979 2.06391 38.4455 2.78025 39.4392C3.49658 40.4328 4.46814 40.991 5.4812 40.991V40.991ZM23.6221 26.2984H24.9732L28.1293 15.6927H26.3243L24.4004 22.6492H24.3787L22.4873 15.6927H20.5633L23.6221 26.2984ZM30.6368 26.2984H32.323V15.6927H30.6368V26.2984ZM35.4358 26.2984H40.8292V24.1484H37.1219V21.9895H40.4401V19.8306H37.1219V17.8516H40.6347V15.6927H35.4466L35.4358 26.2984ZM3.18331 11.6147H4.86944V3.06897H7.05275V1H1V3.06897H3.18331V11.6147ZM9.43061 11.6147H11.1167V7.02699H14.3809V11.6147H16.067V1H14.3809V4.95802H11.1059V1H9.43061V11.6147ZM18.3476 11.6147H23.7518V9.45577H20.0229V7.29685H23.3411V5.13793H20.0229V3.15892H23.5357V1H18.3476V11.6147ZM1.27021 26.3073H2.94553V18.1664H2.96714L4.91267 26.3073H6.18807L8.19845 18.1664H8.22006V26.3073H9.90619V15.6927H7.36619L5.5936 22.6192H5.57199L3.8102 15.6927H1.2594L1.27021 26.3073ZM25.5007 41H28.2374C28.7917 41.004 29.3432 40.8876 29.8716 40.6552C30.3703 40.4391 30.8358 40.0965 31.2443 39.6447C31.6415 39.1963 31.9638 38.6336 32.1889 37.9955C32.4384 37.2882 32.5657 36.51 32.5608 35.7226C32.5784 34.8703 32.4541 34.0238 32.1976 33.2489C31.9722 32.5957 31.6371 32.0271 31.2205 31.5907C30.7842 31.1568 30.2894 30.8489 29.7657 30.6852C29.1951 30.4874 28.6093 30.3867 28.0212 30.3853H25.4899L25.5007 41ZM27.1889 32.5442H28.1833C28.5243 32.5425 28.8639 32.6051 29.1928 32.7301C29.4952 32.8442 29.7796 33.0354 30.0316 33.2939C30.271 33.5467 30.4648 33.8731 30.5979 34.2474C30.7464 34.669 30.8205 35.1335 30.8141 35.6027C30.8234 36.1263 30.7496 36.6463 30.5979 37.1259C30.4687 37.5212 30.2703 37.8655 30.0208 38.1274C29.7625 38.3902 29.4683 38.5769 29.1561 38.6762C28.8017 38.7894 28.4389 38.8448 28.0752 38.8411H27.1781L27.1889 32.5442ZM35.0013 41H38.1358C38.4794 40.9989 38.822 40.9487 39.1583 40.8501C39.4841 40.7599 39.7964 40.5926 40.0813 40.3553C40.3518 40.1314 40.5812 39.8235 40.7514 39.4558C40.9337 39.0325 41.0238 38.5452 41.0108 38.0525C41.0127 37.7254 40.9724 37.4004 40.8919 37.093C40.8173 36.8026 40.7019 36.5356 40.5525 36.3073C40.4021 36.0788 40.2226 35.8907 40.0229 35.7526C39.8075 35.6 39.5751 35.4987 39.3355 35.4528V35.4228C39.7068 35.2747 40.0393 34.9811 40.2931 34.5772C40.5417 34.1556 40.6702 33.6222 40.6541 33.078C40.6714 32.5895 40.5849 32.1047 40.4055 31.6837C40.2446 31.337 40.021 31.0548 39.757 30.8651C39.4747 30.665 39.1699 30.5332 38.8556 30.4753C38.5239 30.4121 38.1895 30.38 37.8548 30.3793H35.0013V41ZM36.6874 32.3643H37.8331C37.9672 32.3653 38.101 32.3824 38.233 32.4153C38.3613 32.4463 38.4853 32.505 38.6005 32.5892C38.7085 32.669 38.8 32.7856 38.8664 32.928C38.9387 33.0919 38.974 33.2819 38.968 33.4738C38.9718 33.6615 38.9406 33.8475 38.8772 34.0135C38.8188 34.1599 38.7348 34.2836 38.633 34.3733C38.5291 34.4659 38.4142 34.5319 38.2936 34.5682C38.1673 34.6077 38.0383 34.6278 37.9088 34.6282H36.668L36.6874 32.3643ZM36.6874 36.6072H37.9628C38.1111 36.6082 38.2592 36.6233 38.406 36.6522C38.5547 36.6803 38.7001 36.7358 38.8383 36.8171C38.9714 36.8928 39.0888 37.0134 39.1799 37.1679C39.2729 37.3405 39.3202 37.5523 39.3139 37.7676C39.3194 37.9718 39.2842 38.1741 39.2123 38.3523C39.146 38.5084 39.0551 38.6417 38.9464 38.7421C38.8368 38.8434 38.7143 38.9146 38.5854 38.952C38.4554 38.9909 38.3228 39.011 38.1898 39.012H36.6766L36.6874 36.6072Z" fill="url(#paint0_linear_18_28)"/>
<defs>
<linearGradient id="paint0_linear_18_28" x1="1" y1="21" x2="41" y2="21" gradientUnits="userSpaceOnUse">
<stop stop-color="#90CEA1"/>
<stop offset="0.56" stop-color="#3CBEC9"/>
<stop offset="1" stop-color="#00B3E5"/>
</linearGradient>
</defs>
</svg>
